<svg width="480" height="360" viewBox="0 0 480 360" fill="none" xmlns="http://www.w3.org/2000/svg">
  <defs>
    <linearGradient id="bg" x1="0" y1="0" x2="1" y2="1">
      <stop offset="0%" stop-color="#041124"/>
      <stop offset="100%" stop-color="#0f3152"/>
    </linearGradient>
    <radialGradient id="pulse" cx="0.5" cy="0.5" r="0.5">
      <stop offset="0%" stop-color="#00d4ff" stop-opacity="0.8"/>
      <stop offset="100%" stop-color="#001628" stop-opacity="0"/>
    </radialGradient>
  </defs>
  <rect width="480" height="360" rx="32" fill="url(#bg)"/>
  <g opacity="0.4" stroke="#5be7ff" stroke-width="0.8">
    <path d="M40 120C120 70 200 70 320 120C440 170 460 260 380 300C300 340 180 320 100 260C20 200 0 170 40 120Z"/>
    <path d="M80 40C200 20 320 20 420 60C520 100 520 180 440 220C360 260 220 260 140 220C60 180 -40 60 80 40Z"/>
    <path d="M60 200C160 160 320 200 360 260C400 320 260 340 160 320C60 300 -40 240 60 200Z"/>
  </g>
  <g fill="#0f2136" stroke="#00d4ff" stroke-width="1.5">
    <circle cx="120" cy="140" r="16"/>
    <circle cx="220" cy="90" r="20"/>
    <circle cx="320" cy="150" r="18"/>
    <circle cx="280" cy="240" r="22"/>
    <circle cx="160" cy="260" r="14"/>
  </g>
  <g fill="#7de6ff">
    <circle cx="120" cy="140" r="6"/>
    <circle cx="220" cy="90" r="8"/>
    <circle cx="320" cy="150" r="7"/>
    <circle cx="280" cy="240" r="9"/>
    <circle cx="160" cy="260" r="5"/>
  </g>
  <circle cx="220" cy="90" r="64" fill="url(#pulse)"/>
  <circle cx="280" cy="240" r="72" fill="url(#pulse)"/>
</svg>
